<mxfile>
  <diagram name="Class Diagram">
    <mxGraphModel>
      <root>
        <mxCell id="0" />
        <mxCell id="1" parent="0" />
        <mxCell id="2" value="Note" style="swimlane;whiteSpace=wrap;html=1;" vertex="1" parent="1">
          <mxGeometry x="40" y="20" width="140" height="120" as="geometry" />
        </mxCell>
        <mxCell id="3" value="- title: str&#10;- content: str&#10;- created_at: datetime&#10;- author: ForeignKey" style="text;html=1;whiteSpace=wrap;" vertex="1" parent="2">
          <mxGeometry x="0" y="0" width="140" height="80" as="geometry" />
        </mxCell>
        <mxCell id="4" value="+ __str__()" style="text;html=1;whiteSpace=wrap;" vertex="1" parent="2">
          <mxGeometry x="0" y="80" width="140" height="40" as="geometry" />
        </mxCell>
        <mxCell id="5" value="Author" style="swimlane;whiteSpace=wrap;html=1;" vertex="1" parent="1">
          <mxGeometry x="220" y="20" width="140" height="80" as="geometry" />
        </mxCell>
        <mxCell id="6" value="- name: str" style="text;html=1;whiteSpace=wrap;" vertex="1" parent="5">
          <mxGeometry x="0" y="0" width="140" height="40" as="geometry" />
        </mxCell>
        <mxCell id="7" value="+ __str__()" style="text;html=1;whiteSpace=wrap;" vertex="1" parent="5">
          <mxGeometry x="0" y="40" width="140" height="40" as="geometry" />
        </mxCell>
      </root>
    </mxGraphModel>
  </diagram>
</mxfile>
